<svg width="37" height="36" viewBox="0 0 37 36" fill="none" xmlns="http://www.w3.org/2000/svg">
<path d="M23.4492 12.727H26.6365V24.7126H23.4492V12.727ZM13.3078 20.6939H17.6202L18.7857 24.7087H22.05L17.3096 8.96019H13.347V10.5147L9.18992 24.7087H12.1423L13.3078 20.6939ZM15.4444 11.7625L17.0381 17.94H13.8521L15.4444 11.7625ZM0.70874 0V35.2495H36.7087V0H0.70874ZM34.0096 32.4747H3.4601V2.77485H34.0096V32.4747ZM26.7109 9.65975C26.7109 8.40549 25.3317 7.61732 24.2344 8.24445C23.137 8.87158 23.137 10.4479 24.2344 11.0751C25.3317 11.7022 26.7109 10.914 26.7109 9.65975Z" fill="#5C1F9E"/>
</svg>
