<svg width="15" height="16" viewBox="0 0 15 16" fill="none" xmlns="http://www.w3.org/2000/svg">
<path d="M14.8951 7.54448C14.8352 7.38496 14.7453 7.24539 14.6254 7.12575L8.39161 0.904652C8.15185 0.665379 7.85714 0.540757 7.50749 0.530787C7.15784 0.520818 6.85814 0.640454 6.60839 0.889697C6.35864 1.13894 6.23377 1.43803 6.23377 1.78697C6.23377 2.13591 6.35365 2.43002 6.59341 2.66929L10.7293 6.76684H1.25874C0.919081 6.76684 0.624376 6.89146 0.374625 7.1407C0.124875 7.38995 0 7.68405 0 8.02302C0 8.36199 0.124875 8.6561 0.374625 8.90534C0.624376 9.15458 0.919081 9.27921 1.25874 9.27921H10.7293L6.59341 13.3768C6.35365 13.616 6.23377 13.9101 6.23377 14.2591C6.23377 14.608 6.35365 14.9071 6.59341 15.1563C6.83317 15.4056 7.13287 15.5302 7.49251 15.5302C7.85215 15.5302 8.15185 15.4006 8.39161 15.1414L14.6254 8.9203C14.7453 8.80066 14.8352 8.66108 14.8951 8.50157C15.035 8.18254 15.035 7.86351 14.8951 7.54448Z" fill="white"/>
</svg>
