<svg width="75" height="76" viewBox="0 0 75 76" fill="none" xmlns="http://www.w3.org/2000/svg">
<path d="M37.3711 75.3352C58.0106 75.3352 74.7422 58.6036 74.7422 37.9641C74.7422 17.3246 58.0106 0.593018 37.3711 0.593018C16.7316 0.593018 0 17.3246 0 37.9641C0 58.6036 16.7316 75.3352 37.3711 75.3352Z" fill="black"/>
<path d="M57.668 23.1047H16.6523C15.3579 23.1047 14.3086 24.1541 14.3086 25.4485V53.5735C14.3086 54.8679 15.3579 55.9172 16.6523 55.9172H57.668C58.9624 55.9172 60.0117 54.8679 60.0117 53.5735V25.4485C60.0117 24.1541 58.9624 23.1047 57.668 23.1047Z" fill="#3B3C3C"/>
<path d="M57.668 22.1672H16.6523C15.3579 22.1672 14.3086 23.2166 14.3086 24.511V52.636C14.3086 53.9304 15.3579 54.9797 16.6523 54.9797H57.668C58.9624 54.9797 60.0117 53.9304 60.0117 52.636V24.511C60.0117 23.2166 58.9624 22.1672 57.668 22.1672Z" fill="#5A5A5A"/>
<path d="M57.082 24.9797H17.2383V48.4172H57.082V24.9797Z" fill="#F2F2F2"/>
<path d="M45.3633 39.7921C44.9883 39.9678 44.5664 40.1085 44.1211 40.2257C43.6758 39.7335 43.0547 39.0538 42.293 38.2335C41.2617 37.1319 40.0312 35.8311 38.7773 34.6007C37.5234 33.3585 36.2695 32.2218 35.2383 31.4366C34.7109 31.0382 34.2773 30.7569 33.9375 30.5928C33.7617 30.5108 33.6445 30.4757 33.5742 30.4522C33.5039 30.4405 33.5273 30.4522 33.5977 30.4288C33.5859 30.4288 33.6562 30.3819 33.7148 30.2999C33.7617 30.2178 33.7383 30.1944 33.7383 30.2882C33.7266 30.5108 33.8438 30.9327 34.1367 31.5655C34.7109 32.8077 35.7773 34.4366 36.9141 36.1475C38.0273 37.8233 39.2109 39.5577 39.9609 40.9639C40.3359 41.6671 40.6406 42.3468 40.7578 42.9327C40.8164 43.2257 40.8516 43.5655 40.7578 43.8819C40.6641 44.2452 40.4531 44.5616 40.0898 44.7608C39.7617 44.9366 39.4102 45.0186 39.0469 45.0186C38.6836 45.0186 38.3438 44.9483 38.0156 44.8194C37.3711 44.5733 36.7383 44.128 36.1172 43.6007C34.8867 42.5343 33.5742 40.9757 32.3438 39.4405C31.0781 37.8819 29.918 36.3468 28.9102 35.2452C28.418 34.6944 27.9844 34.2843 27.6445 34.0382C27.4805 33.921 27.3633 33.8624 27.2812 33.8389C27.1992 33.8155 27.2109 33.8272 27.2461 33.8038L27.2344 33.8155C27.1992 33.8272 27.1758 33.8389 27.1875 33.8389C27.1758 33.8389 27.1523 33.8741 27.1523 33.9678C27.1523 34.1788 27.2344 34.5186 27.457 34.9874C27.8789 35.9014 28.6641 37.0616 29.5078 38.2569C30.3516 39.4288 31.2422 40.6358 31.8281 41.6085C32.1211 42.1007 32.3672 42.546 32.4844 42.9327C32.543 43.1202 32.5781 43.3194 32.5664 43.5186C32.543 43.7178 32.4492 43.9288 32.25 44.0694C32.0391 44.2335 31.793 44.3155 31.5469 44.3389C31.2891 44.3507 31.043 44.3038 30.8203 44.21C30.3633 44.0343 29.8945 43.6944 29.4492 43.296C28.5586 42.4874 27.5859 41.3038 26.7188 40.3546C26.2734 39.8741 25.8516 39.4405 25.4531 39.1241C25.0547 38.796 24.7266 38.6085 24.457 38.5733C24.3281 38.5499 24.2109 38.5733 24.1055 38.6202C24 38.6671 23.8828 38.7608 23.7656 38.9249C23.543 39.2647 23.3438 39.8507 23.2148 40.7764C23.1328 41.2803 22.875 41.7374 22.5469 42.1475C22.2188 42.5577 21.8086 42.9327 21.4102 43.2374C21.0117 43.5303 20.6133 43.7647 20.3086 43.9053C20.1562 43.9874 20.0156 44.0343 19.9102 44.0577C19.8633 44.0577 19.8164 44.0694 19.793 44.0694C19.7578 44.0577 19.7344 44.046 19.7227 44.0343C19.7344 44.046 19.7578 44.046 19.793 44.0343C19.8164 44.0343 19.8516 44.0225 19.8984 43.9991C19.9922 43.9639 20.1211 43.9053 20.2617 43.8233C20.543 43.6475 20.918 43.3897 21.293 43.0733C21.6563 42.7569 22.0313 42.3819 22.3125 41.9718C22.5938 41.5616 22.7813 41.1397 22.8164 40.7296C22.9336 39.7803 23.1211 39.1124 23.3906 38.6788C23.5313 38.4678 23.6953 38.3038 23.8828 38.1983C24.082 38.0928 24.293 38.0577 24.5039 38.0811C24.9258 38.1163 25.3711 38.3624 25.8047 38.6905C26.2383 39.0303 26.6953 39.4639 27.1523 39.9444C28.0898 40.9171 29.0273 42.0186 29.9062 42.7686C30.3516 43.1436 30.7383 43.4014 31.0664 43.5069C31.2305 43.5655 31.3594 43.5772 31.4766 43.5655C31.582 43.5538 31.6758 43.5069 31.7812 43.4366C31.7461 43.4483 31.7344 43.4835 31.7344 43.4483C31.7344 43.4132 31.7227 43.3311 31.6758 43.2022C31.582 42.921 31.3711 42.5577 31.0664 42.0889C30.4688 41.1749 29.5898 40.0264 28.6992 38.8428C27.832 37.6827 26.9648 36.4639 26.4609 35.4678C26.2148 34.9757 26.0273 34.46 26.0039 34.003C25.9922 33.7569 26.0273 33.5108 26.1563 33.2647C26.2852 33.0186 26.4844 32.8428 26.7422 32.7139L26.7305 32.7257C27.0234 32.585 27.3398 32.585 27.5977 32.6553C27.8555 32.7139 28.1133 32.8546 28.3477 33.0069C28.8281 33.3233 29.332 33.8038 29.8711 34.3663C30.9258 35.4913 32.1797 37.0616 33.4219 38.5616C34.6875 40.0733 35.9531 41.5147 37.0898 42.4522C37.6523 42.921 38.1445 43.2257 38.5547 43.3663C38.7422 43.4366 38.9063 43.4483 39.0234 43.4483C39.1406 43.4366 39.2227 43.4132 39.3164 43.3546C39.2344 43.3897 39.1992 43.46 39.1875 43.4952C39.1758 43.5069 39.1875 43.4366 39.1523 43.2725C39.0703 42.9444 38.8477 42.4405 38.4727 41.7843C37.7461 40.4835 36.5859 38.8428 35.4258 37.1553C34.2773 35.4913 33.1055 33.7686 32.4258 32.3858C32.0977 31.7178 31.8164 31.003 31.7812 30.3585C31.7695 30.0186 31.8164 29.6319 32.0391 29.2569C32.2734 28.8819 32.6133 28.6358 33.0117 28.5069C33.3516 28.4014 33.6797 28.4132 33.9609 28.4718C34.2422 28.5186 34.5234 28.6124 34.793 28.7296C35.3203 28.9639 35.8945 29.3272 36.4805 29.7491C37.6523 30.5928 39 31.7882 40.3008 33.0186C41.6133 34.2491 42.9023 35.5616 43.957 36.6397C44.7422 37.4483 45.3984 38.1397 45.8438 38.585C45.7031 39.0186 45.5508 39.4053 45.3633 39.7921Z" fill="#AAAAAA" stroke="#AAAAAA" stroke-width="4" stroke-linecap="round" stroke-linejoin="round"/>
<path d="M52.0358 26.7882L45.4068 33.4172C44.9491 33.8749 44.9491 34.6168 45.4068 35.0745L47.064 36.7317C47.5217 37.1894 48.2636 37.1894 48.7213 36.7317L55.3504 30.1027C55.808 29.645 55.808 28.9031 55.3504 28.4454L53.6931 26.7882C53.2354 26.3305 52.4935 26.3305 52.0358 26.7882Z" fill="#5A5A5A"/>
<path d="M46.2354 35.9031L54.5217 27.6168L55.3503 28.4454C55.8061 28.9012 55.8061 29.6469 55.3503 30.1027L48.7212 36.7317C48.2655 37.1875 47.5197 37.1875 47.064 36.7317L46.2354 35.9031Z" fill="#494949"/>
<path d="M52.6181 28.2775L50.5422 30.3534C50.4289 30.4667 50.4332 30.6545 50.5518 30.7731L51.3655 31.5868C51.484 31.7053 51.6719 31.7096 51.7851 31.5964L53.861 29.5205C53.9742 29.4073 53.9699 29.2194 53.8514 29.1009L53.0377 28.2872C52.9191 28.1686 52.7313 28.1643 52.6181 28.2775Z" fill="#1B1B1D"/>
<path d="M48.9721 31.9235L46.8962 33.9994C46.7829 34.1126 46.7872 34.3005 46.9058 34.419L47.7195 35.2327C47.838 35.3513 48.0259 35.3556 48.1391 35.2424L50.215 33.1665C50.3282 33.0532 50.3239 32.8654 50.2054 32.7468L49.3917 31.9331C49.2731 31.8146 49.0853 31.8103 48.9721 31.9235Z" fill="#1B1B1D"/>
</svg>
