<svg width="61" height="62" viewBox="0 0 61 62" fill="none" xmlns="http://www.w3.org/2000/svg">
<path d="M53.6088 34.1085C53.7641 33.1952 53.7641 32.1283 53.7641 31.0616C53.7641 29.9949 53.6088 29.0814 53.6088 28.0147L60.1518 22.9877C60.7758 22.531 60.931 21.7694 60.4638 21.0075L54.2311 10.4952C53.9192 9.88525 52.9849 9.58188 52.3609 9.88525L44.57 12.9323C43.0117 11.7138 41.1431 10.647 39.2731 9.88525L38.1821 1.81147C38.0268 1.20298 37.4029 0.593018 36.6238 0.593018H24.1583C23.3792 0.593018 22.7554 1.20298 22.6001 1.81147L21.3538 9.88525C19.4836 10.647 17.7702 11.7137 16.0553 12.9323L8.26441 9.88525C7.48526 9.58188 6.70611 9.88525 6.39424 10.4952L0.161477 21.0077C-0.148923 21.616 0.00605722 22.531 0.473342 22.9878L7.17368 28.0147C7.17368 29.0814 7.01841 29.9949 7.01841 31.0616C7.01841 32.1283 7.17368 33.0418 7.17368 34.1085L0.63052 39.1355C0.00649632 39.5923 -0.148484 40.3539 0.318509 41.1157L6.55127 51.628C6.86328 52.238 7.79756 52.5414 8.42144 52.238L16.2125 49.191C17.7707 50.4094 19.6394 51.4763 21.5094 52.238L22.7557 60.3118C22.9123 61.0735 23.5347 61.5302 24.3138 61.5302H36.7794C37.5585 61.5302 38.1824 60.9203 38.3377 60.3118L39.5854 52.238C41.4541 51.4763 43.169 50.4096 44.8823 49.191L52.6733 52.238C53.4523 52.5414 54.2315 52.238 54.5435 51.628L60.7763 41.1156C61.0881 40.5072 60.9315 39.5923 60.4643 39.1354L53.6088 34.1085ZM30.3912 41.7257C24.3137 41.7257 19.4839 37.0038 19.4839 31.0616C19.4839 25.1195 24.3137 20.3976 30.3912 20.3976C36.4687 20.3976 41.2985 25.1195 41.2985 31.0616C41.2985 37.0038 36.4687 41.7257 30.3912 41.7257Z" fill="black"/>
</svg>
