<svg width="32" height="31" viewBox="0 0 32 31" fill="none" xmlns="http://www.w3.org/2000/svg">
<g clip-path="url(#clip0_24_54)">
<path d="M30.6167 9.59763C30.6282 9.15336 30.5016 8.71431 30.2494 8.32438C29.9881 7.94746 29.6113 7.63709 29.1587 7.42596C25.1471 5.46825 21.1341 3.51328 17.1196 1.56104C16.0387 1.03277 14.9909 1.05151 13.9169 1.58798C12.3203 2.38098 4.32522 6.25696 1.9429 7.42479C0.961701 7.90504 0.484959 8.64064 0.484959 9.59646V21.4036C0.474833 21.8385 0.596488 22.2683 0.838358 22.6522C1.09984 23.0406 1.48362 23.3602 1.94706 23.5753C4.32938 24.7466 12.3259 28.6179 13.9224 29.4144C14.9965 29.9509 16.0442 29.9696 17.1266 29.4413C21.1373 27.4829 25.1503 25.5271 29.1657 23.5741C29.6291 23.359 30.0129 23.0395 30.2744 22.6511C30.5162 22.2671 30.6379 21.8373 30.6278 21.4024V9.59763H30.6167Z" fill="#5C1F9E"/>
<path d="M30.6194 21.4035C30.6299 21.8384 30.5082 22.2683 30.266 22.6522C30.2066 22.7436 30.1394 22.8313 30.0651 22.9146L15.5508 15.5L29.1587 7.4259C29.6108 7.63711 29.9871 7.94749 30.248 8.32432C30.5013 8.71394 30.6284 9.15314 30.6166 9.59757C30.6194 13.5333 30.6194 21.4035 30.6194 21.4035Z" fill="#5C1F9E"/>
<path d="M30.2481 8.3244L0.834211 22.6523C0.593418 22.2685 0.47272 21.8391 0.483584 21.4048V9.59648C0.483584 8.64066 0.961711 7.90506 1.94153 7.42481C4.32523 6.25698 12.3204 2.38101 13.9183 1.58567C14.9896 1.04919 16.0387 1.03045 17.1196 1.55872C21.1304 3.51721 25.1434 5.47296 29.1588 7.42598C29.6109 7.63719 29.9872 7.94757 30.2481 8.3244Z" fill="#5C1F9E"/>
<path d="M16.1327 20.2697C15.1423 20.2709 14.1696 20.0473 13.3164 19.6222C12.4631 19.1971 11.7606 18.5862 11.2821 17.8533C11.2332 17.7798 11.187 17.7049 11.1435 17.6284C10.5532 16.5979 10.4304 15.4202 10.7985 14.3183C11.1666 13.2165 12 12.267 13.1408 11.6496C14.2816 11.0322 15.6507 10.7899 16.9888 10.9684C18.3268 11.147 19.5409 11.7341 20.4012 12.6185C20.4747 12.6935 20.5398 12.772 20.6132 12.8528C20.6465 12.8914 20.6798 12.9301 20.7102 12.9699L25.5705 10.6038C25.4523 10.4429 25.3285 10.2868 25.1991 10.1353C25.1312 10.0544 25.0605 9.97714 24.994 9.901C23.3047 8.04615 20.8544 6.79367 18.1263 6.39058C15.3982 5.98749 12.5904 6.46306 10.2568 7.72349C7.92313 8.98392 6.23301 10.9377 5.51977 13.1995C4.80654 15.4613 5.12196 17.8669 6.40385 19.9418C6.45097 20.0167 6.49947 20.0905 6.54243 20.1643C7.48388 21.5682 8.83878 22.7426 10.4756 23.5734C12.1124 24.4042 13.9756 24.8632 15.8842 24.9058C17.7929 24.9485 19.6821 24.5734 21.3686 23.8169C23.0551 23.0604 24.4816 21.9482 25.5095 20.5883L20.7574 18.1601C20.2542 18.8086 19.568 19.3409 18.7607 19.7092C17.9533 20.0775 17.0502 20.2702 16.1327 20.2697Z" fill="#0A0A0A"/>
</g>
<defs>
<clipPath id="clip0_24_54">
<rect width="31" height="31" fill="white" transform="translate(0.0546875)"/>
</clipPath>
</defs>
</svg>
