<svg width="11" height="12" viewBox="0 0 11 12" fill="none" xmlns="http://www.w3.org/2000/svg">
<mask id="path-1-inside-1_50_84" fill="white">
<path d="M5.42934 9.76934C5.5769 9.76934 5.70493 9.71509 5.81343 9.60659C5.92193 9.49809 5.97618 9.37006 5.97618 9.2225C5.97618 9.07494 5.92193 8.94691 5.81343 8.83841C5.70493 8.72991 5.5769 8.67566 5.42934 8.67566C5.28178 8.67566 5.15375 8.72991 5.04525 8.83841C4.93675 8.94691 4.8825 9.07494 4.8825 9.2225C4.8825 9.37006 4.93675 9.49809 5.04525 9.60659C5.15375 9.71509 5.28178 9.76934 5.42934 9.76934ZM8.1375 9.76934C8.25034 9.76934 8.35233 9.74113 8.44347 9.68471C8.53461 9.62829 8.60405 9.548 8.65179 9.44384C8.69953 9.33968 8.71255 9.23335 8.69085 9.12485C8.66915 9.01635 8.61924 8.92304 8.54112 8.84492C8.463 8.7668 8.36969 8.71472 8.26119 8.68868C8.15269 8.66264 8.04636 8.67132 7.9422 8.71472C7.83804 8.75812 7.75558 8.82539 7.69482 8.91653C7.63406 9.00767 7.60368 9.10966 7.60368 9.2225C7.60368 9.37006 7.65576 9.49809 7.75992 9.60659C7.86408 9.71509 7.98994 9.76934 8.1375 9.76934ZM8.1375 7.595C8.25034 7.595 8.35233 7.56679 8.44347 7.51037C8.53461 7.45395 8.60405 7.37366 8.65179 7.2695C8.69953 7.16534 8.71255 7.05901 8.69085 6.95051C8.66915 6.84201 8.61924 6.7487 8.54112 6.67058C8.463 6.59246 8.36969 6.54038 8.26119 6.51434C8.15269 6.4883 8.04636 6.49698 7.9422 6.54038C7.83804 6.58378 7.75558 6.65105 7.69482 6.74219C7.63406 6.83333 7.60368 6.93532 7.60368 7.04816C7.60368 7.19572 7.65576 7.32375 7.75992 7.43225C7.86408 7.54075 7.98994 7.595 8.1375 7.595ZM5.42934 7.595C5.5769 7.595 5.70493 7.54075 5.81343 7.43225C5.92193 7.32375 5.97618 7.19572 5.97618 7.04816C5.97618 6.9006 5.92193 6.77257 5.81343 6.66407C5.70493 6.55557 5.5769 6.50132 5.42934 6.50132C5.28178 6.50132 5.15375 6.55557 5.04525 6.66407C4.93675 6.77257 4.8825 6.9006 4.8825 7.04816C4.8825 7.19572 4.93675 7.32375 5.04525 7.43225C5.15375 7.54075 5.28178 7.595 5.42934 7.595ZM9.23118 1.085H8.68434V0.538164C8.66698 0.407964 8.60622 0.297294 8.50206 0.206154C8.3979 0.115014 8.27855 0.0694437 8.14401 0.0694437C8.00947 0.0694437 7.89012 0.115014 7.78596 0.206154C7.6818 0.297294 7.62104 0.407964 7.60368 0.538164V1.085H3.255V0.538164C3.23764 0.407964 3.17688 0.297294 3.07272 0.206154C2.96856 0.115014 2.84921 0.0694437 2.71467 0.0694437C2.58013 0.0694437 2.46078 0.115014 2.35662 0.206154C2.25246 0.297294 2.1917 0.407964 2.17434 0.538164V1.085H1.6275C1.33238 1.085 1.06113 1.15878 0.81375 1.30634C0.56637 1.4539 0.3689 1.65137 0.22134 1.89875C0.07378 2.14613 0 2.41738 0 2.7125V10.3032C0 10.5983 0.07378 10.8695 0.22134 11.1169C0.3689 11.3643 0.56637 11.5618 0.81375 11.7093C1.06113 11.8569 1.33238 11.9307 1.6275 11.9307H9.23118C9.5263 11.9307 9.79755 11.8569 10.0449 11.7093C10.2923 11.5618 10.4898 11.3643 10.6373 11.1169C10.7849 10.8695 10.8587 10.5983 10.8587 10.3032V2.7125C10.8587 2.41738 10.7849 2.14613 10.6373 1.89875C10.4898 1.65137 10.2923 1.4539 10.0449 1.30634C9.79755 1.15878 9.5263 1.085 9.23118 1.085ZM9.765 10.3032C9.765 10.4507 9.71292 10.5788 9.60876 10.6873C9.5046 10.7958 9.37874 10.85 9.23118 10.85H1.6275C1.47994 10.85 1.35408 10.7958 1.24992 10.6873C1.14576 10.5788 1.09368 10.4507 1.09368 10.3032V5.42066H9.765V10.3032ZM9.765 4.34H1.09368V2.7125C1.09368 2.56494 1.14576 2.43691 1.24992 2.32841C1.35408 2.21991 1.47994 2.16566 1.6275 2.16566H2.17434V2.7125C2.1917 2.8427 2.25246 2.95337 2.35662 3.04451C2.46078 3.13565 2.58013 3.18122 2.71467 3.18122C2.84921 3.18122 2.96856 3.13565 3.07272 3.04451C3.17688 2.95337 3.23764 2.8427 3.255 2.7125V2.16566H7.60368V2.7125C7.62104 2.8427 7.6818 2.95337 7.78596 3.04451C7.89012 3.13565 8.00947 3.18122 8.14401 3.18122C8.27855 3.18122 8.3979 3.13565 8.50206 3.04451C8.60622 2.95337 8.66698 2.8427 8.68434 2.7125V2.16566H9.23118C9.37874 2.16566 9.5046 2.21991 9.60876 2.32841C9.71292 2.43691 9.765 2.56494 9.765 2.7125V4.34ZM2.72118 7.595C2.86874 7.595 2.99677 7.54075 3.10527 7.43225C3.21377 7.32375 3.26802 7.19572 3.26802 7.04816C3.26802 6.9006 3.21377 6.77257 3.10527 6.66407C2.99677 6.55557 2.86874 6.50132 2.72118 6.50132C2.57362 6.50132 2.44559 6.55557 2.33709 6.66407C2.22859 6.77257 2.17434 6.9006 2.17434 7.04816C2.17434 7.19572 2.22859 7.32375 2.33709 7.43225C2.44559 7.54075 2.57362 7.595 2.72118 7.595ZM2.72118 9.76934C2.86874 9.76934 2.99677 9.71509 3.10527 9.60659C3.21377 9.49809 3.26802 9.37006 3.26802 9.2225C3.26802 9.07494 3.21377 8.94691 3.10527 8.83841C2.99677 8.72991 2.86874 8.67566 2.72118 8.67566C2.57362 8.67566 2.44559 8.72991 2.33709 8.83841C2.22859 8.94691 2.17434 9.07494 2.17434 9.2225C2.17434 9.37006 2.22859 9.49809 2.33709 9.60659C2.44559 9.71509 2.57362 9.76934 2.72118 9.76934Z"/>
</mask>
<path d="M5.42934 9.76934C5.5769 9.76934 5.70493 9.71509 5.81343 9.60659C5.92193 9.49809 5.97618 9.37006 5.97618 9.2225C5.97618 9.07494 5.92193 8.94691 5.81343 8.83841C5.70493 8.72991 5.5769 8.67566 5.42934 8.67566C5.28178 8.67566 5.15375 8.72991 5.04525 8.83841C4.93675 8.94691 4.8825 9.07494 4.8825 9.2225C4.8825 9.37006 4.93675 9.49809 5.04525 9.60659C5.15375 9.71509 5.28178 9.76934 5.42934 9.76934ZM8.1375 9.76934C8.25034 9.76934 8.35233 9.74113 8.44347 9.68471C8.53461 9.62829 8.60405 9.548 8.65179 9.44384C8.69953 9.33968 8.71255 9.23335 8.69085 9.12485C8.66915 9.01635 8.61924 8.92304 8.54112 8.84492C8.463 8.7668 8.36969 8.71472 8.26119 8.68868C8.15269 8.66264 8.04636 8.67132 7.9422 8.71472C7.83804 8.75812 7.75558 8.82539 7.69482 8.91653C7.63406 9.00767 7.60368 9.10966 7.60368 9.2225C7.60368 9.37006 7.65576 9.49809 7.75992 9.60659C7.86408 9.71509 7.98994 9.76934 8.1375 9.76934ZM8.1375 7.595C8.25034 7.595 8.35233 7.56679 8.44347 7.51037C8.53461 7.45395 8.60405 7.37366 8.65179 7.2695C8.69953 7.16534 8.71255 7.05901 8.69085 6.95051C8.66915 6.84201 8.61924 6.7487 8.54112 6.67058C8.463 6.59246 8.36969 6.54038 8.26119 6.51434C8.15269 6.4883 8.04636 6.49698 7.9422 6.54038C7.83804 6.58378 7.75558 6.65105 7.69482 6.74219C7.63406 6.83333 7.60368 6.93532 7.60368 7.04816C7.60368 7.19572 7.65576 7.32375 7.75992 7.43225C7.86408 7.54075 7.98994 7.595 8.1375 7.595ZM5.42934 7.595C5.5769 7.595 5.70493 7.54075 5.81343 7.43225C5.92193 7.32375 5.97618 7.19572 5.97618 7.04816C5.97618 6.9006 5.92193 6.77257 5.81343 6.66407C5.70493 6.55557 5.5769 6.50132 5.42934 6.50132C5.28178 6.50132 5.15375 6.55557 5.04525 6.66407C4.93675 6.77257 4.8825 6.9006 4.8825 7.04816C4.8825 7.19572 4.93675 7.32375 5.04525 7.43225C5.15375 7.54075 5.28178 7.595 5.42934 7.595ZM9.23118 1.085H8.68434V0.538164C8.66698 0.407964 8.60622 0.297294 8.50206 0.206154C8.3979 0.115014 8.27855 0.0694437 8.14401 0.0694437C8.00947 0.0694437 7.89012 0.115014 7.78596 0.206154C7.6818 0.297294 7.62104 0.407964 7.60368 0.538164V1.085H3.255V0.538164C3.23764 0.407964 3.17688 0.297294 3.07272 0.206154C2.96856 0.115014 2.84921 0.0694437 2.71467 0.0694437C2.58013 0.0694437 2.46078 0.115014 2.35662 0.206154C2.25246 0.297294 2.1917 0.407964 2.17434 0.538164V1.085H1.6275C1.33238 1.085 1.06113 1.15878 0.81375 1.30634C0.56637 1.4539 0.3689 1.65137 0.22134 1.89875C0.07378 2.14613 0 2.41738 0 2.7125V10.3032C0 10.5983 0.07378 10.8695 0.22134 11.1169C0.3689 11.3643 0.56637 11.5618 0.81375 11.7093C1.06113 11.8569 1.33238 11.9307 1.6275 11.9307H9.23118C9.5263 11.9307 9.79755 11.8569 10.0449 11.7093C10.2923 11.5618 10.4898 11.3643 10.6373 11.1169C10.7849 10.8695 10.8587 10.5983 10.8587 10.3032V2.7125C10.8587 2.41738 10.7849 2.14613 10.6373 1.89875C10.4898 1.65137 10.2923 1.4539 10.0449 1.30634C9.79755 1.15878 9.5263 1.085 9.23118 1.085ZM9.765 10.3032C9.765 10.4507 9.71292 10.5788 9.60876 10.6873C9.5046 10.7958 9.37874 10.85 9.23118 10.85H1.6275C1.47994 10.85 1.35408 10.7958 1.24992 10.6873C1.14576 10.5788 1.09368 10.4507 1.09368 10.3032V5.42066H9.765V10.3032ZM9.765 4.34H1.09368V2.7125C1.09368 2.56494 1.14576 2.43691 1.24992 2.32841C1.35408 2.21991 1.47994 2.16566 1.6275 2.16566H2.17434V2.7125C2.1917 2.8427 2.25246 2.95337 2.35662 3.04451C2.46078 3.13565 2.58013 3.18122 2.71467 3.18122C2.84921 3.18122 2.96856 3.13565 3.07272 3.04451C3.17688 2.95337 3.23764 2.8427 3.255 2.7125V2.16566H7.60368V2.7125C7.62104 2.8427 7.6818 2.95337 7.78596 3.04451C7.89012 3.13565 8.00947 3.18122 8.14401 3.18122C8.27855 3.18122 8.3979 3.13565 8.50206 3.04451C8.60622 2.95337 8.66698 2.8427 8.68434 2.7125V2.16566H9.23118C9.37874 2.16566 9.5046 2.21991 9.60876 2.32841C9.71292 2.43691 9.765 2.56494 9.765 2.7125V4.34ZM2.72118 7.595C2.86874 7.595 2.99677 7.54075 3.10527 7.43225C3.21377 7.32375 3.26802 7.19572 3.26802 7.04816C3.26802 6.9006 3.21377 6.77257 3.10527 6.66407C2.99677 6.55557 2.86874 6.50132 2.72118 6.50132C2.57362 6.50132 2.44559 6.55557 2.33709 6.66407C2.22859 6.77257 2.17434 6.9006 2.17434 7.04816C2.17434 7.19572 2.22859 7.32375 2.33709 7.43225C2.44559 7.54075 2.57362 7.595 2.72118 7.595ZM2.72118 9.76934C2.86874 9.76934 2.99677 9.71509 3.10527 9.60659C3.21377 9.49809 3.26802 9.37006 3.26802 9.2225C3.26802 9.07494 3.21377 8.94691 3.10527 8.83841C2.99677 8.72991 2.86874 8.67566 2.72118 8.67566C2.57362 8.67566 2.44559 8.72991 2.33709 8.83841C2.22859 8.94691 2.17434 9.07494 2.17434 9.2225C2.17434 9.37006 2.22859 9.49809 2.33709 9.60659C2.44559 9.71509 2.57362 9.76934 2.72118 9.76934Z" fill="#A69FAD" stroke="#A69FAD" stroke-width="2" mask="url(#path-1-inside-1_50_84)"/>
</svg>
