<svg width="20" height="14" viewBox="0 0 20 14" fill="none" xmlns="http://www.w3.org/2000/svg">
<path d="M18.5114 1.0977C18.1644 0.699234 17.7451 0.5 17.2534 0.5C16.7618 0.5 16.3425 0.699234 15.9955 1.0977L9.4886 8.46935L3.11189 1.0977C2.76486 0.699234 2.3383 0.5 1.83221 0.5C1.32612 0.5 0.899562 0.699234 0.55253 1.0977C0.205498 1.49617 0.0319824 1.98595 0.0319824 2.56705C0.0319824 3.14815 0.205498 3.63793 0.55253 4.0364L8.18723 12.8525C8.53427 13.2842 8.96806 13.5 9.4886 13.5C10.0092 13.5 10.4429 13.2842 10.79 12.8525L18.5114 4.0364C18.8585 3.63793 19.032 3.14815 19.032 2.56705C19.032 1.98595 18.8585 1.49617 18.5114 1.0977Z" fill="#5C1F9E"/>
</svg>
