<svg width="36" height="29" viewBox="0 0 36 29" fill="none" xmlns="http://www.w3.org/2000/svg">
<path d="M34.7364 10.2353L33.0946 9.22926L18.0774 0.0874805H17.8772C17.7704 0.0583191 17.6636 0.0291595 17.5568 0H16.9561C16.8226 0.0291595 16.7025 0.0583191 16.5957 0.0874805H16.4355L1.41835 9.22926C1.17807 9.40422 0.984518 9.63022 0.837683 9.90724C0.690849 10.1843 0.617432 10.4832 0.617432 10.8039C0.617432 11.1247 0.690849 11.4236 0.837683 11.7006C0.984518 11.9776 1.17807 12.2036 1.41835 12.3786L5.58311 14.9155V23.5324C5.58311 24.5239 5.81003 25.4351 6.26389 26.2662C6.71774 27.0973 7.3251 27.7607 8.08597 28.2564C8.84684 28.7521 9.68112 29 10.5888 29H23.9241C24.8318 29 25.6661 28.7521 26.4269 28.2564C27.1878 27.7607 27.7952 27.0973 28.249 26.2662C28.7029 25.4351 28.9298 24.5239 28.9298 23.5324V14.9155L32.2536 12.8597V18.0649C32.2536 18.5606 32.4204 18.9907 32.7542 19.3552C33.0879 19.7197 33.4817 19.902 33.9355 19.902C34.3894 19.902 34.7831 19.7197 35.1169 19.3552C35.4506 18.9907 35.6174 18.5606 35.6174 18.0649V11.81C35.6174 11.4892 35.5373 11.183 35.3772 10.8914C35.217 10.5998 35.0034 10.3811 34.7364 10.2353ZM25.606 23.5324C25.606 24.0282 25.4391 24.4583 25.1054 24.8228C24.7717 25.1873 24.3779 25.3695 23.9241 25.3695H10.5888C10.135 25.3695 9.74119 25.1873 9.40748 24.8228C9.07376 24.4583 8.90691 24.0282 8.90691 23.5324V16.9276L16.6758 21.6078H16.836C16.9695 21.637 17.1029 21.6516 17.2364 21.6516C17.3699 21.6516 17.5167 21.637 17.6769 21.6078H17.8371C17.9172 21.5787 17.9973 21.5349 18.0774 21.4766L25.606 16.9276V23.5324ZM17.2364 17.8024L5.6632 10.7602L17.2364 3.76169L28.8497 10.7602L17.2364 17.8024Z" fill="#5C1F9E"/>
</svg>
