<svg width="27" height="23" viewBox="0 0 27 23" fill="none" xmlns="http://www.w3.org/2000/svg">
<path d="M22.688 0.936779H4C3.27467 0.936779 2.608 1.11811 2 1.48078C1.392 1.84344 0.906667 2.32878 0.544 2.93678C0.181333 3.54478 0 4.21144 0 4.93678V18.2488C0 18.9741 0.181333 19.6408 0.544 20.2488C0.906667 20.8568 1.392 21.3421 2 21.7048C2.608 22.0674 3.27467 22.2488 4 22.2488H22.688C23.4133 22.2488 24.08 22.0674 24.688 21.7048C25.296 21.3421 25.7813 20.8568 26.144 20.2488C26.5067 19.6408 26.688 18.9741 26.688 18.2488V4.93678C26.688 4.21144 26.5067 3.54478 26.144 2.93678C25.7813 2.32878 25.296 1.84344 24.688 1.48078C24.08 1.11811 23.4133 0.936779 22.688 0.936779ZM4 3.59278H22.688C23.0507 3.59278 23.36 3.72611 23.616 3.99278C23.872 4.25945 24 4.57411 24 4.93678L13.344 11.4328L2.688 4.93678C2.688 4.57411 2.816 4.25945 3.072 3.99278C3.328 3.72611 3.63733 3.59278 4 3.59278ZM24 18.2488C24 18.6114 23.872 18.9261 23.616 19.1928C23.36 19.4594 23.0507 19.5928 22.688 19.5928H4C3.63733 19.5928 3.328 19.4594 3.072 19.1928C2.816 18.9261 2.688 18.6114 2.688 18.2488V7.97678L12.64 14.0568C12.8533 14.1848 13.0773 14.2488 13.312 14.2488C13.5467 14.2488 13.7707 14.1848 13.984 14.0568L24 7.97678V18.2488Z" fill="#5C1F9E"/>
</svg>
