<svg width="35" height="36" viewBox="0 0 35 36" fill="none" xmlns="http://www.w3.org/2000/svg">
<path d="M0.70874 6.7354C0.70874 3.01554 4.72947 0 9.68933 0H25.0988C30.0587 0 34.0794 3.01554 34.0794 6.7354C34.0794 9.09084 32.4673 11.1639 30.0254 12.3678C32.4673 13.5716 34.0794 15.6447 34.0794 18.0001C34.0794 21.72 30.0587 24.7356 25.0988 24.7356H24.9038C22.5786 24.7356 20.4598 24.0728 18.8649 22.9854V29.1914C18.8649 32.9609 14.7391 36 9.73771 36C4.79025 36 0.70874 32.9936 0.70874 29.2646C0.70874 26.9092 2.32072 24.8363 4.76242 23.6324C2.32072 22.4285 0.70874 20.3555 0.70874 18.0001C0.70874 15.6447 2.32087 13.5716 4.76272 12.3678C2.32087 11.1639 0.70874 9.09084 0.70874 6.7354ZM15.9232 13.471H9.68933C6.3541 13.471 3.65041 15.4988 3.65041 18.0001C3.65041 20.4919 6.33325 22.5136 9.65071 22.5292C9.66355 22.5292 9.6764 22.5292 9.68933 22.5292H15.9232V13.471ZM18.8649 18.0001C18.8649 20.5015 21.5686 22.5293 24.9038 22.5293H25.0988C28.4341 22.5293 31.1377 20.5015 31.1377 18.0001C31.1377 15.4988 28.4341 13.471 25.0988 13.471H24.9038C21.5686 13.471 18.8649 15.4988 18.8649 18.0001ZM9.68933 24.7356C9.6764 24.7356 9.66355 24.7355 9.65071 24.7355C6.33325 24.7511 3.65041 26.7728 3.65041 29.2646C3.65041 31.7568 6.39022 33.7937 9.73771 33.7937C13.1391 33.7937 15.9232 31.724 15.9232 29.1914V24.7356H9.68933ZM9.68933 2.20625C6.3541 2.20625 3.65041 4.23403 3.65041 6.7354C3.65041 9.23681 6.3541 11.2646 9.68933 11.2646H15.9232V2.20625H9.68933ZM18.8649 11.2646H25.0988C28.4341 11.2646 31.1377 9.23681 31.1377 6.7354C31.1377 4.23403 28.4341 2.20625 25.0988 2.20625H18.8649V11.2646Z" fill="#5C1F9E"/>
</svg>
