<svg width="18" height="19" viewBox="0 0 18 19" fill="none" xmlns="http://www.w3.org/2000/svg">
<path d="M7.101 16.8504C7.101 16.5838 6.99767 16.3671 6.791 16.2004C6.58433 16.0338 6.35433 15.9771 6.101 16.0304C5.43433 16.1504 4.87433 16.1704 4.421 16.0904C3.821 15.9838 3.441 15.6971 3.281 15.2304C2.94767 14.4171 2.43433 13.7504 1.741 13.2304C1.68767 13.2038 1.641 13.1704 1.601 13.1304C1.53433 12.9704 1.431 12.8404 1.291 12.7404C1.151 12.6404 0.994333 12.5904 0.821 12.5904C0.594333 12.5904 0.401 12.6738 0.241 12.8404C0.081 13.0071 0.001 13.2038 0.001 13.4304C-0.0123333 13.7238 0.107667 14.0038 0.361 14.2704C0.521 14.4438 0.714333 14.5838 0.941 14.6904C1.27433 15.0238 1.53433 15.4038 1.721 15.8304C1.921 16.4038 2.261 16.8571 2.741 17.1904C3.421 17.6704 4.321 17.8771 5.441 17.8104V18.1104C5.46767 18.3104 5.561 18.4804 5.721 18.6204C5.881 18.7604 6.06433 18.8304 6.271 18.8304C6.47767 18.8304 6.661 18.7604 6.821 18.6204C6.981 18.4804 7.07433 18.3104 7.101 18.1104V16.8504ZM15.981 4.25044C15.981 4.22377 15.9943 4.17711 16.021 4.11044L16.061 3.91044C16.1943 2.96377 16.081 2.04377 15.721 1.15044C15.6277 0.91044 15.4543 0.750441 15.201 0.670441C14.921 0.577106 14.5677 0.57044 14.141 0.65044C13.4343 0.783773 12.6277 1.13711 11.721 1.71044C9.961 1.29711 8.19433 1.29711 6.421 1.71044C5.52767 1.13711 4.72767 0.783773 4.021 0.65044C3.56767 0.57044 3.21433 0.573772 2.961 0.66044C2.70767 0.747107 2.52767 0.91044 2.421 1.15044C2.04767 2.05711 1.93433 2.99044 2.081 3.95044C2.10767 4.01711 2.13433 4.11711 2.161 4.25044C1.81433 4.70377 1.551 5.20377 1.371 5.75044C1.191 6.29711 1.101 6.85711 1.101 7.43044C1.101 7.69711 1.11433 7.95711 1.141 8.21044C1.261 9.91711 1.83433 11.2438 2.861 12.1904C3.581 12.8571 4.51433 13.3238 5.661 13.5904C5.621 13.6971 5.58767 13.8104 5.561 13.9304C5.53433 14.1438 5.581 14.3371 5.701 14.5104C5.821 14.6838 5.98433 14.7971 6.191 14.8504C6.39767 14.9038 6.59433 14.8804 6.781 14.7804C6.96767 14.6804 7.101 14.5304 7.181 14.3304C7.23433 14.0371 7.36767 13.7904 7.581 13.5904C7.701 13.4838 7.78433 13.3504 7.831 13.1904C7.87767 13.0304 7.87433 12.8704 7.821 12.7104C7.76767 12.5504 7.67767 12.4171 7.551 12.3104C7.42433 12.2038 7.281 12.1438 7.121 12.1304C5.681 11.9704 4.62767 11.5738 3.961 10.9404C3.29433 10.3071 2.90767 9.34377 2.801 8.05044C2.78767 7.85044 2.781 7.64377 2.781 7.43044C2.76767 7.01711 2.82767 6.61711 2.961 6.23044C3.09433 5.84377 3.28767 5.49044 3.541 5.17044L3.701 4.99044C3.80767 4.87044 3.87433 4.73377 3.901 4.58044C3.92767 4.42711 3.91433 4.27711 3.861 4.13044C3.80767 3.98377 3.76767 3.83044 3.741 3.67044C3.67433 3.21711 3.69433 2.77044 3.801 2.33044C4.53433 2.53044 5.20767 2.85711 5.821 3.31044C6.03433 3.44377 6.261 3.47711 6.501 3.41044C7.341 3.18377 8.19767 3.07044 9.071 3.07044C9.94433 3.07044 10.801 3.18377 11.641 3.41044C11.8943 3.49044 12.1277 3.45711 12.341 3.31044C12.9543 2.85711 13.621 2.52377 14.341 2.31044C14.461 2.75044 14.4877 3.19044 14.421 3.63044C14.3943 3.80377 14.351 3.96711 14.291 4.12044C14.231 4.27377 14.211 4.42711 14.231 4.58044C14.251 4.73377 14.3143 4.87044 14.421 4.99044C14.4743 5.03044 14.541 5.10377 14.621 5.21044C14.8743 5.53044 15.0643 5.88044 15.191 6.26044C15.3177 6.64044 15.3743 7.03044 15.361 7.43044C15.361 7.65711 15.3543 7.87711 15.341 8.09044C15.2477 9.35711 14.8643 10.3071 14.191 10.9404C13.5177 11.5738 12.4543 11.9704 11.001 12.1304C10.841 12.1571 10.6977 12.2238 10.571 12.3304C10.4443 12.4371 10.3577 12.5671 10.311 12.7204C10.2643 12.8738 10.2643 13.0304 10.311 13.1904C10.3577 13.3504 10.441 13.4838 10.561 13.5904C10.7743 13.8038 10.901 14.0571 10.941 14.3504C10.9943 14.5771 11.021 14.8038 11.021 15.0304V16.9704C11.0077 17.3304 11.001 17.7104 11.001 18.1104C11.001 18.3371 11.0843 18.5338 11.251 18.7004C11.4177 18.8671 11.6143 18.9504 11.841 18.9504C12.0677 18.9504 12.2643 18.8671 12.431 18.7004C12.5977 18.5338 12.681 18.3371 12.681 18.1104V15.0304C12.6943 14.6571 12.6543 14.2904 12.561 13.9304C12.5343 13.8104 12.501 13.6971 12.461 13.5904C13.3277 13.4438 14.1043 13.1171 14.791 12.6104C15.4777 12.1038 16.0177 11.4671 16.411 10.7004C16.8043 9.93377 17.001 9.11044 17.001 8.23044C17.0277 7.96377 17.041 7.69711 17.041 7.43044C17.0543 6.85711 16.9677 6.29711 16.781 5.75044C16.5943 5.20377 16.3277 4.70377 15.981 4.25044Z" fill="white"/>
</svg>
