<svg width="17" height="18" viewBox="0 0 17 18" fill="none" xmlns="http://www.w3.org/2000/svg">
<path d="M12.8424 3.47271C12.5624 3.47271 12.3257 3.56937 12.1324 3.76271C11.939 3.95604 11.8424 4.19271 11.8424 4.47271C11.8424 4.75271 11.939 4.98937 12.1324 5.1827C12.3257 5.37604 12.5624 5.4727 12.8424 5.4727C13.1224 5.4727 13.359 5.37604 13.5524 5.1827C13.7457 4.98937 13.8424 4.75271 13.8424 4.47271C13.8424 4.19271 13.7457 3.95604 13.5524 3.76271C13.359 3.56937 13.1224 3.47271 12.8424 3.47271ZM16.6624 5.49271C16.649 4.79937 16.5224 4.12604 16.2824 3.47271C16.069 2.91271 15.7524 2.41604 15.3324 1.98271C14.9124 1.54937 14.4157 1.23271 13.8424 1.03271C13.189 0.792706 12.5157 0.666039 11.8224 0.652706C11.3957 0.62604 10.9957 0.606039 10.6224 0.592705H8.38236H6.16236C5.78902 0.606039 5.38236 0.62604 4.94236 0.652706C4.24902 0.666039 3.57569 0.792706 2.92236 1.03271C2.36236 1.24604 1.86569 1.56271 1.43236 1.98271C0.999025 2.40271 0.682358 2.89937 0.482358 3.47271C0.242358 4.12604 0.115692 4.79937 0.102358 5.49271C0.0756917 5.91937 0.0556917 6.31937 0.0423584 6.69271V8.9327V11.1527C0.0556917 11.526 0.0756917 11.9327 0.102358 12.3727C0.115692 13.066 0.242358 13.7394 0.482358 14.3927C0.682358 14.966 0.999025 15.4627 1.43236 15.8827C1.86569 16.3027 2.36236 16.6194 2.92236 16.8327C3.57569 17.0727 4.24902 17.1994 4.94236 17.2127C5.36902 17.2394 5.76902 17.2594 6.14236 17.2727H8.38236H10.6224C10.9957 17.2594 11.3957 17.2394 11.8224 17.2127C12.5157 17.1994 13.189 17.0727 13.8424 16.8327C14.4157 16.6327 14.9124 16.316 15.3324 15.8827C15.7524 15.4494 16.069 14.9527 16.2824 14.3927C16.5224 13.7394 16.649 13.066 16.6624 12.3727C16.6624 12.146 16.669 11.8394 16.6824 11.4527C16.709 10.6927 16.7224 9.85271 16.7224 8.9327V6.69271C16.709 6.31937 16.689 5.91937 16.6624 5.49271ZM15.1624 12.2727C15.1624 12.806 15.069 13.3194 14.8824 13.8127C14.749 14.186 14.5424 14.5094 14.2624 14.7827C13.9824 15.056 13.6624 15.2594 13.3024 15.3927C12.7957 15.5794 12.2757 15.6727 11.7424 15.6727C11.3424 15.6994 10.9624 15.7194 10.6024 15.7327H8.42236H6.24236C5.86902 15.7194 5.48236 15.6994 5.08236 15.6727C4.52236 15.686 3.98236 15.606 3.46236 15.4327C3.11569 15.286 2.80569 15.076 2.53236 14.8027C2.25903 14.5294 2.06236 14.2127 1.94236 13.8527C1.72903 13.346 1.61569 12.8194 1.60236 12.2727C1.60236 12.0594 1.59569 11.7727 1.58236 11.4127C1.55569 10.666 1.54236 9.83937 1.54236 8.9327V6.75271C1.55569 6.37937 1.57569 5.99271 1.60236 5.59271C1.60236 5.04604 1.69569 4.51937 1.88236 4.01271C2.02903 3.65271 2.24903 3.34604 2.54236 3.09271C2.79569 2.79937 3.10236 2.57937 3.46236 2.43271C3.96902 2.24604 4.49569 2.15271 5.04236 2.15271C5.25569 2.15271 5.54236 2.14604 5.90236 2.13271C6.64902 2.10604 7.47569 2.09271 8.38236 2.09271H10.5624C10.9357 2.10604 11.3224 2.12604 11.7224 2.15271C12.2557 2.15271 12.769 2.24604 13.2624 2.43271C13.649 2.56604 13.9824 2.78604 14.2624 3.09271C14.5424 3.35937 14.749 3.66604 14.8824 4.01271C15.069 4.51937 15.1624 5.04604 15.1624 5.59271V5.71271C15.2024 6.4727 15.2224 7.54604 15.2224 8.9327C15.2224 10.3194 15.2024 11.3927 15.1624 12.1527V12.2727ZM8.38236 4.65271C7.60903 4.65271 6.89569 4.84604 6.24236 5.23271C5.58903 5.61937 5.06903 6.13937 4.68236 6.79271C4.29569 7.44604 4.10236 8.15937 4.10236 8.9327C4.10236 9.70604 4.29569 10.4194 4.68236 11.0727C5.06903 11.726 5.58903 12.246 6.24236 12.6327C6.89569 13.0194 7.60903 13.2127 8.38236 13.2127C9.15569 13.2127 9.86903 13.0194 10.5224 12.6327C11.1757 12.246 11.6957 11.726 12.0824 11.0727C12.469 10.4194 12.6624 9.70604 12.6624 8.9327C12.6624 8.35937 12.5557 7.81271 12.3424 7.29271C12.129 6.77271 11.819 6.30937 11.4124 5.90271C11.0057 5.49604 10.5424 5.18604 10.0224 4.9727C9.50236 4.75937 8.95569 4.65271 8.38236 4.65271ZM8.38236 11.7127C7.87569 11.7127 7.40902 11.5894 6.98236 11.3427C6.55569 11.096 6.21903 10.7594 5.97236 10.3327C5.72569 9.90604 5.60236 9.43937 5.60236 8.9327C5.60236 8.42604 5.72569 7.95937 5.97236 7.53271C6.21903 7.10604 6.55569 6.76937 6.98236 6.52271C7.40902 6.27604 7.87569 6.15271 8.38236 6.15271C8.88902 6.15271 9.35569 6.27604 9.78236 6.52271C10.209 6.76937 10.5457 7.10604 10.7924 7.53271C11.039 7.95937 11.1624 8.42604 11.1624 8.9327C11.1624 9.43937 11.039 9.90604 10.7924 10.3327C10.5457 10.7594 10.209 11.096 9.78236 11.3427C9.35569 11.5894 8.88902 11.7127 8.38236 11.7127Z" fill="white"/>
</svg>
