<svg width="28" height="29" viewBox="0 0 28 29" fill="none" xmlns="http://www.w3.org/2000/svg">
<path d="M9.33445 14.0928C9.33445 11.5155 11.4232 9.42573 14.0006 9.42573C16.5779 9.42573 18.6678 11.5155 18.6678 14.0928C18.6678 16.67 16.5779 18.7598 14.0006 18.7598C11.4232 18.7598 9.33445 16.67 9.33445 14.0928ZM6.81144 14.0928C6.81144 18.0632 10.03 21.2816 14.0006 21.2816C17.9711 21.2816 21.1897 18.0632 21.1897 14.0928C21.1897 10.1224 17.9711 6.90394 14.0006 6.90394C10.03 6.90394 6.81144 10.1224 6.81144 14.0928ZM19.7942 6.6189C19.7938 7.54674 20.5457 8.2992 21.4736 8.29957C22.4015 8.29995 23.154 7.54808 23.1544 6.62025C23.1547 5.69241 22.4028 4.93994 21.475 4.93957C20.5475 4.94001 19.795 5.69151 19.7942 6.6189ZM8.34433 25.4884C6.97934 25.4263 6.23742 25.1989 5.74437 25.0068C5.09072 24.7524 4.62433 24.4493 4.13397 23.9596C3.64362 23.47 3.34009 23.0041 3.08673 22.3504C2.89453 21.8576 2.66716 21.1155 2.60511 19.7506C2.53724 18.2749 2.52368 17.8316 2.52368 14.0929C2.52368 10.3542 2.53836 9.91215 2.60511 8.43521C2.66727 7.07026 2.89632 6.32961 3.08673 5.83535C3.34121 5.18172 3.64429 4.71535 4.13397 4.22501C4.62366 3.73468 5.0896 3.43116 5.74437 3.17781C6.23719 2.98562 6.97934 2.75826 8.34433 2.69621C9.8201 2.62834 10.2634 2.61479 14.0006 2.61479C17.7377 2.61479 18.1815 2.62946 19.6585 2.69621C21.0235 2.75837 21.7642 2.98741 22.2584 3.17781C22.9121 3.43116 23.3785 3.73535 23.8688 4.22501C24.3592 4.71468 24.6616 5.18172 24.9161 5.83535C25.1083 6.32815 25.3356 7.07026 25.3977 8.43521C25.4656 9.91215 25.4791 10.3542 25.4791 14.0929C25.4791 17.8316 25.4656 18.2736 25.3977 19.7506C25.3355 21.1155 25.107 21.8574 24.9161 22.3504C24.6616 23.0041 24.3585 23.4704 23.8688 23.9596C23.3791 24.4489 22.9121 24.7524 22.2584 25.0068C21.7656 25.199 21.0235 25.4264 19.6585 25.4884C18.1827 25.5563 17.7394 25.5699 14.0006 25.5699C10.2617 25.5699 9.81966 25.5563 8.34433 25.4884ZM8.22841 0.177557C6.73797 0.245429 5.71951 0.481749 4.83008 0.827829C3.90896 1.18522 3.12918 1.66469 2.34997 2.44265C1.57075 3.2206 1.09249 4.00157 0.735085 4.92266C0.388992 5.81261 0.152662 6.83047 0.0847874 8.32085C0.0157926 9.81359 0 10.2908 0 14.0928C0 17.8947 0.0157926 18.372 0.0847874 19.8647C0.152662 21.3552 0.388992 22.3729 0.735085 23.2629C1.09249 24.1834 1.57086 24.9653 2.34997 25.7429C3.12907 26.5205 3.90896 26.9993 4.83008 27.3577C5.72119 27.7038 6.73797 27.9401 8.22841 28.008C9.72199 28.0759 10.1985 28.0928 14.0006 28.0928C17.8027 28.0928 18.2799 28.077 19.7727 28.008C21.2633 27.9401 22.2811 27.7038 23.171 27.3577C24.0916 26.9993 24.8719 26.5209 25.6512 25.7429C26.4304 24.9649 26.9076 24.1834 27.266 23.2629C27.6121 22.3729 27.8496 21.3551 27.9163 19.8647C27.9842 18.3708 28 17.8947 28 14.0928C28 10.2908 27.9842 9.81359 27.9163 8.32085C27.8485 6.83036 27.6121 5.81205 27.266 4.92266C26.9076 4.00213 26.4291 3.22183 25.6512 2.44265C24.8732 1.66346 24.0916 1.18522 23.1722 0.827829C22.2811 0.481749 21.2632 0.244309 19.7738 0.177557C18.281 0.109685 17.8038 0.0927734 14.0017 0.0927734C10.1996 0.0927734 9.72199 0.108565 8.22841 0.177557Z" fill="#5C1F9E"/>
</svg>
