<svg width="32" height="33" viewBox="0 0 32 33" fill="none" xmlns="http://www.w3.org/2000/svg">
<path d="M28.1797 0.75C30.0078 0.75 31.5547 2.29688 31.5547 4.125V28.875C31.5547 30.7734 30.0078 32.25 28.1797 32.25H3.42969C1.53125 32.25 0.0546875 30.7734 0.0546875 28.875V4.125C0.0546875 2.29688 1.53125 0.75 3.42969 0.75H28.1797ZM17.1406 25.3594V15.2344H14.1875V25.2891C14.1875 26.7656 13.5547 27.1875 12.6406 27.1875C11.5859 27.1875 11.1641 26.4844 10.7422 25.6406L8.28125 27.1172C8.98438 28.5938 10.3906 29.7891 12.7109 29.7891C15.3828 29.7891 17.1406 28.3828 17.1406 25.3594ZM24.1719 29.7891C26.9844 29.7891 29.0938 28.3828 29.0938 25.7109C29.0938 23.25 27.6875 22.125 25.1562 21.0703L24.3828 20.7188C23.1172 20.1562 22.5547 19.8047 22.5547 18.8906C22.5547 18.1875 23.1172 17.625 23.9609 17.625C24.875 17.625 25.3672 18.0469 25.9297 18.8906L28.1797 17.4141C27.2656 15.7266 25.8594 15.0938 24.0312 15.0938C21.3594 15.0938 19.6719 16.7812 19.6719 18.9609C19.6719 21.4219 21.0781 22.5469 23.1875 23.4609L23.9609 23.7422C25.2969 24.375 26.1406 24.7266 26.1406 25.7109C26.1406 26.5547 25.2969 27.1875 24.1016 27.1875C22.625 27.1875 21.8516 26.4141 21.2188 25.4297L18.7578 26.7656C19.6719 28.5234 21.4297 29.7891 24.1719 29.7891Z" fill="#5C1F9E"/>
</svg>
