<svg width="26" height="18" viewBox="0 0 26 18" fill="none" xmlns="http://www.w3.org/2000/svg">
<path d="M9.96002 1.38398C9.70402 1.10665 9.38402 0.967981 9.00002 0.967981C8.61602 0.967981 8.29602 1.10665 8.04002 1.38398L1.38402 8.03998C1.10668 8.29598 0.968018 8.61598 0.968018 8.99998C0.968018 9.38398 1.10668 9.70398 1.38402 9.95998L8.04002 16.616C8.29602 16.8933 8.61602 17.032 9.00002 17.032C9.38402 17.032 9.70402 16.8986 9.96002 16.632C10.216 16.3653 10.344 16.0453 10.344 15.672C10.344 15.2986 10.216 14.984 9.96002 14.728L4.20002 8.99998L9.96002 3.27198C10.216 3.01598 10.344 2.70132 10.344 2.32798C10.344 1.95465 10.216 1.63998 9.96002 1.38398ZM24.616 8.03998L17.96 1.38398C17.704 1.12798 17.3894 0.994649 17.016 0.983982C16.6427 0.973315 16.3227 1.10132 16.056 1.36798C15.7894 1.63465 15.656 1.95465 15.656 2.32798C15.656 2.70132 15.784 3.01598 16.04 3.27198L21.8 8.99998L16.04 14.728C15.784 14.984 15.656 15.2986 15.656 15.672C15.656 16.0453 15.784 16.3653 16.04 16.632C16.296 16.8986 16.616 17.032 17 17.032C17.384 17.032 17.704 16.8933 17.96 16.616L24.616 9.95998C24.8934 9.70398 25.032 9.38398 25.032 8.99998C25.032 8.61598 24.8934 8.29598 24.616 8.03998Z" fill="#5C1F9E"/>
</svg>
