<svg width="27" height="42" viewBox="0 0 27 42" fill="none" xmlns="http://www.w3.org/2000/svg">
<path d="M25.7383 18.2898L5.97196 0.976841C5.29907 0.387463 4.47196 0.0927734 3.49065 0.0927734C2.50935 0.0927734 1.68224 0.387463 1.00935 0.976841C0.336449 1.56622 0 2.29066 0 3.15018C0 4.00969 0.336449 4.73413 1.00935 5.32351L18.3364 20.6473L1.00935 35.8238C0.336449 36.4132 0 37.1377 0 37.9972C0 38.8567 0.336449 39.5811 1.00935 40.1705C1.68224 40.7599 2.50935 41.0669 3.49065 41.0914C4.47196 41.116 5.29907 40.809 5.97196 40.1705L25.8224 22.8575C26.6075 22.2681 27 21.5069 27 20.5737C27 19.6405 26.6075 18.8792 25.8224 18.2898H25.7383Z" fill="white"/>
</svg>
