<svg width="20" height="21" viewBox="0 0 20 21" fill="none" xmlns="http://www.w3.org/2000/svg">
<path d="M13.3502 8.09269C12.5902 8.09269 11.8769 8.27269 11.2102 8.63269C11.1436 8.47269 11.0402 8.34269 10.9002 8.24269C10.7602 8.14269 10.6036 8.09269 10.4302 8.09269H7.11024C6.88358 8.09269 6.68691 8.17602 6.52024 8.34269C6.35358 8.50935 6.27024 8.70602 6.27024 8.93269V18.9327C6.27024 19.1594 6.35358 19.3527 6.52024 19.5127C6.68691 19.6727 6.88358 19.7527 7.11024 19.7527H10.4302C10.6569 19.7527 10.8536 19.6727 11.0202 19.5127C11.1869 19.3527 11.2702 19.1594 11.2702 18.9327V14.3327C11.2436 14.1727 11.2636 14.016 11.3302 13.8627C11.3969 13.7094 11.5002 13.5894 11.6402 13.5027C11.7802 13.416 11.9336 13.3727 12.1002 13.3727C12.2669 13.3727 12.4202 13.416 12.5602 13.5027C12.7002 13.5894 12.8036 13.7094 12.8702 13.8627C12.9369 14.016 12.9569 14.1727 12.9302 14.3327V18.9327C12.9302 19.1594 13.0136 19.3527 13.1802 19.5127C13.3469 19.6727 13.5436 19.7527 13.7702 19.7527H17.1102C17.3369 19.7527 17.5302 19.6727 17.6902 19.5127C17.8502 19.3527 17.9302 19.1594 17.9302 18.9327V12.6727C17.9302 11.846 17.7236 11.0827 17.3102 10.3827C16.8969 9.68269 16.3402 9.12602 15.6402 8.71269C14.9402 8.29935 14.1769 8.09269 13.3502 8.09269ZM16.2702 18.0927H14.6102V14.3327C14.6102 13.8794 14.4969 13.4627 14.2702 13.0827C14.0436 12.7027 13.7402 12.3994 13.3602 12.1727C12.9802 11.946 12.5636 11.8327 12.1102 11.8327C11.6569 11.8327 11.2402 11.946 10.8602 12.1727C10.4802 12.3994 10.1769 12.7027 9.95024 13.0827C9.72358 13.4627 9.61024 13.8794 9.61024 14.3327V18.0927H7.93024V9.75269H9.61024V10.3527C9.61024 10.526 9.66358 10.6827 9.77024 10.8227C9.87691 10.9627 10.0102 11.0627 10.1702 11.1227C10.3302 11.1827 10.4969 11.1894 10.6702 11.1427C10.8436 11.096 10.9836 11.006 11.0902 10.8727C11.4769 10.3927 11.9669 10.0627 12.5602 9.88269C13.1536 9.70269 13.7402 9.71602 14.3202 9.92269C14.9002 10.1294 15.3702 10.486 15.7302 10.9927C16.0902 11.4994 16.2702 12.0594 16.2702 12.6727V18.0927ZM4.61024 8.09269H1.27024C1.04358 8.09269 0.846911 8.17602 0.680244 8.34269C0.513577 8.50935 0.430244 8.70602 0.430244 8.93269V18.9327C0.430244 19.1594 0.513577 19.3527 0.680244 19.5127C0.846911 19.6727 1.04358 19.7527 1.27024 19.7527H4.61024C4.83691 19.7527 5.03024 19.6727 5.19024 19.5127C5.35024 19.3527 5.43024 19.1594 5.43024 18.9327V8.93269C5.43024 8.70602 5.35024 8.50935 5.19024 8.34269C5.03024 8.17602 4.83691 8.09269 4.61024 8.09269ZM3.77024 18.0927H2.11024V9.75269H3.77024V18.0927ZM2.95024 1.87269C2.44358 1.81935 1.96024 1.90602 1.50024 2.13269C1.04024 2.35935 0.676911 2.68935 0.410244 3.12269C0.143577 3.55602 0.00691057 4.02935 0.000243902 4.54269C-0.00642276 5.05602 0.123577 5.52935 0.390244 5.96269C0.656911 6.39602 1.01691 6.72935 1.47024 6.96269C1.92358 7.19602 2.40358 7.29269 2.91024 7.25269H2.93024C3.43691 7.29269 3.92024 7.19935 4.38024 6.97269C4.84024 6.74602 5.20358 6.41602 5.47024 5.98269C5.73691 5.54935 5.87024 5.07935 5.87024 4.57269C5.87024 4.06602 5.73691 3.59602 5.47024 3.16269C5.20358 2.72935 4.84358 2.39602 4.39024 2.16269C3.93691 1.92935 3.45691 1.83269 2.95024 1.87269ZM2.93024 5.59269H2.91024C2.60358 5.63269 2.33358 5.54935 2.10024 5.34269C1.86691 5.13602 1.75024 4.87935 1.75024 4.57269C1.75024 4.26602 1.86024 4.01935 2.08024 3.83269C2.30024 3.64602 2.59024 3.55269 2.95024 3.55269C3.25691 3.51269 3.52691 3.59602 3.76024 3.80269C3.99358 4.00935 4.11024 4.26602 4.11024 4.57269C4.11024 4.87935 4.00358 5.12602 3.79024 5.31269C3.57691 5.49935 3.29024 5.59269 2.93024 5.59269Z" fill="white"/>
</svg>
