<svg width="33" height="33" viewBox="0 0 33 33" fill="none" xmlns="http://www.w3.org/2000/svg">
<g opacity="0.87">
<path d="M21.3704 12.0928C20.1544 12.0928 19.0131 12.3808 17.9464 12.9568C17.8397 12.7008 17.6744 12.4928 17.4504 12.3328C17.2264 12.1728 16.9757 12.0928 16.6984 12.0928H11.3864C11.0237 12.0928 10.7091 12.2261 10.4424 12.4928C10.1757 12.7594 10.0424 13.0741 10.0424 13.4368V29.4368C10.0424 29.7994 10.1757 30.1088 10.4424 30.3648C10.7091 30.6208 11.0237 30.7488 11.3864 30.7488H16.6984C17.0611 30.7488 17.3757 30.6208 17.6424 30.3648C17.9091 30.1088 18.0424 29.7994 18.0424 29.4368V22.0768C17.9997 21.8208 18.0317 21.5701 18.1384 21.3248C18.2451 21.0794 18.4104 20.8874 18.6344 20.7488C18.8584 20.6101 19.1037 20.5408 19.3704 20.5408C19.6371 20.5408 19.8824 20.6101 20.1064 20.7488C20.3304 20.8874 20.4957 21.0794 20.6024 21.3248C20.7091 21.5701 20.7411 21.8208 20.6984 22.0768V29.4368C20.6984 29.7994 20.8317 30.1088 21.0984 30.3648C21.3651 30.6208 21.6797 30.7488 22.0424 30.7488H27.3864C27.7491 30.7488 28.0584 30.6208 28.3144 30.3648C28.5704 30.1088 28.6984 29.7994 28.6984 29.4368V19.4208C28.6984 18.0981 28.3677 16.8768 27.7064 15.7568C27.0451 14.6368 26.1544 13.7461 25.0344 13.0848C23.9144 12.4234 22.6931 12.0928 21.3704 12.0928ZM26.0424 28.0928H23.3864V22.0768C23.3864 21.3514 23.2051 20.6848 22.8424 20.0768C22.4797 19.4688 21.9944 18.9834 21.3864 18.6208C20.7784 18.2581 20.1117 18.0768 19.3864 18.0768C18.6611 18.0768 17.9944 18.2581 17.3864 18.6208C16.7784 18.9834 16.2931 19.4688 15.9304 20.0768C15.5677 20.6848 15.3864 21.3514 15.3864 22.0768V28.0928H12.6984V14.7488H15.3864V15.7088C15.3864 15.9861 15.4717 16.2368 15.6424 16.4608C15.8131 16.6848 16.0264 16.8448 16.2824 16.9408C16.5384 17.0368 16.8051 17.0474 17.0824 16.9728C17.3597 16.8981 17.5837 16.7541 17.7544 16.5408C18.3731 15.7728 19.1571 15.2448 20.1064 14.9568C21.0557 14.6688 21.9944 14.6901 22.9224 15.0208C23.8504 15.3514 24.6024 15.9221 25.1784 16.7328C25.7544 17.5434 26.0424 18.4394 26.0424 19.4208V28.0928ZM7.3864 12.0928H2.0424C1.67973 12.0928 1.36507 12.2261 1.0984 12.4928C0.831733 12.7594 0.6984 13.0741 0.6984 13.4368V29.4368C0.6984 29.7994 0.831733 30.1088 1.0984 30.3648C1.36507 30.6208 1.67973 30.7488 2.0424 30.7488H7.3864C7.74907 30.7488 8.0584 30.6208 8.3144 30.3648C8.5704 30.1088 8.6984 29.7994 8.6984 29.4368V13.4368C8.6984 13.0741 8.5704 12.7594 8.3144 12.4928C8.0584 12.2261 7.74907 12.0928 7.3864 12.0928ZM6.0424 28.0928H3.3864V14.7488H6.0424V28.0928ZM4.7304 2.14078C3.91973 2.05544 3.1464 2.19411 2.4104 2.55678C1.6744 2.91945 1.09307 3.44744 0.6664 4.14078C0.239733 4.83411 0.0210667 5.59144 0.0104 6.41278C-0.000266658 7.23411 0.207733 7.99145 0.6344 8.68478C1.06107 9.37811 1.63707 9.91145 2.3624 10.2848C3.08773 10.6581 3.85573 10.8128 4.6664 10.7488H4.6984C5.50907 10.8128 6.2824 10.6634 7.0184 10.3008C7.7544 9.93811 8.33573 9.41011 8.7624 8.71678C9.18907 8.02345 9.4024 7.27144 9.4024 6.46078C9.4024 5.65011 9.18907 4.89811 8.7624 4.20478C8.33573 3.51144 7.75973 2.97811 7.0344 2.60478C6.30907 2.23145 5.54107 2.07678 4.7304 2.14078ZM4.6984 8.09278H4.6664C4.17573 8.15678 3.74373 8.02345 3.3704 7.69278C2.99707 7.36211 2.8104 6.95144 2.8104 6.46078C2.8104 5.97011 2.9864 5.57545 3.3384 5.27678C3.6904 4.97811 4.1544 4.82878 4.7304 4.82878C5.22107 4.76478 5.65307 4.89811 6.0264 5.22878C6.39973 5.55944 6.5864 5.97011 6.5864 6.46078C6.5864 6.95144 6.41573 7.34611 6.0744 7.64478C5.73307 7.94345 5.2744 8.09278 4.6984 8.09278Z" fill="#5C1F9E"/>
</g>
</svg>
