<svg width="23" height="28" viewBox="0 0 23 28" fill="none" xmlns="http://www.w3.org/2000/svg">
<path d="M19.312 4.03669C17.8613 2.58603 16.1547 1.60469 14.192 1.09269C12.272 0.602026 10.352 0.602026 8.432 1.09269C6.46933 1.60469 4.76267 2.58603 3.312 4.03669C1.86133 5.48736 0.88 7.19403 0.368 9.15669C-0.122667 11.0767 -0.122667 12.9967 0.368 14.9167C0.88 16.8794 1.86133 18.586 3.312 20.0367L10.352 27.0767C10.608 27.3327 10.9227 27.4607 11.296 27.4607C11.6693 27.4607 11.984 27.3327 12.24 27.0767L19.312 19.9727C20.3787 18.906 21.1947 17.6847 21.76 16.3087C22.3253 14.9327 22.608 13.498 22.608 12.0047C22.608 10.5114 22.3253 9.07669 21.76 7.70069C21.1947 6.32469 20.3787 5.10336 19.312 4.03669ZM17.392 18.0527L11.312 24.1647L5.232 18.0527C3.99467 16.8154 3.20533 15.3434 2.864 13.6367C2.52267 11.93 2.688 10.2714 3.36 8.66069C4.032 7.05003 5.088 5.76469 6.528 4.80469C7.968 3.84469 9.56267 3.36469 11.312 3.36469C13.0613 3.36469 14.656 3.84469 16.096 4.80469C17.536 5.76469 18.592 7.05003 19.264 8.66069C19.936 10.2714 20.1013 11.93 19.76 13.6367C19.4187 15.3434 18.6293 16.8154 17.392 18.0527ZM7.312 7.94069C6.58667 8.68736 6.096 9.55136 5.84 10.5327C5.584 11.514 5.584 12.4954 5.84 13.4767C6.096 14.458 6.58667 15.322 7.312 16.0687C8.12267 16.8794 9.09867 17.402 10.24 17.6367C11.3813 17.8714 12.4853 17.77 13.552 17.3327C14.6187 16.8954 15.4773 16.1967 16.128 15.2367C16.7787 14.2767 17.1147 13.2207 17.136 12.0687C17.136 11.3007 16.992 10.5647 16.704 9.86069C16.416 9.15669 16 8.53269 15.456 7.98869C14.912 7.44469 14.288 7.02336 13.584 6.72469C12.88 6.42603 12.1493 6.27669 11.392 6.27669C10.6347 6.27669 9.89867 6.42069 9.184 6.70869C8.46933 6.99669 7.84533 7.40736 7.312 7.94069ZM13.552 14.1807C13.04 14.714 12.4107 15.018 11.664 15.0927C10.9173 15.1674 10.2347 14.9967 9.616 14.5807C8.99733 14.1647 8.58133 13.6047 8.368 12.9007C8.15467 12.1967 8.192 11.5034 8.48 10.8207C8.768 10.138 9.23733 9.62069 9.888 9.26869C10.5387 8.91669 11.2267 8.81003 11.952 8.94869C12.6773 9.08736 13.2747 9.44469 13.744 10.0207C14.2133 10.5967 14.448 11.258 14.448 12.0047C14.448 12.41 14.3627 12.8047 14.192 13.1887C14.0213 13.5727 13.7867 13.9034 13.488 14.1807H13.552Z" fill="#5C1F9E"/>
</svg>
