<svg width="37" height="36" viewBox="0 0 37 36" fill="none" xmlns="http://www.w3.org/2000/svg">
<path d="M0.70874 9.5469e-07V36H36.7087V0L0.70874 9.5469e-07ZM33.845 33.1369H3.57122V2.86314H33.845V33.1369ZM13.5578 8.85405C11.684 8.85405 9.40863 8.91522 9.40863 8.91522V23.6804H12.4503V18.9355C12.4503 18.9355 12.9825 18.9289 13.5578 18.905C20.783 18.9117 21.2576 8.472 13.5578 8.85405ZM13.4768 16.3171C12.9864 16.3224 12.7798 16.3384 12.449 16.3065V11.2079C12.449 11.2079 13.0936 11.1853 13.7187 11.2079C17.0936 11.3731 16.8904 16.4042 13.4768 16.3171ZM25.0947 16.7699C23.7792 16.3003 23.364 16.0259 23.364 15.5072C23.364 14.9447 23.8243 14.6069 24.6351 14.6069C25.5544 14.6069 26.9457 15.2107 27.4282 15.482V12.9938C26.7718 12.6561 25.7741 12.2411 24.5252 12.2411C21.8746 12.2411 20.1655 13.7957 20.1655 15.8689C20.1432 17.1522 20.9972 18.0698 23.211 18.8358C24.4598 19.264 24.7881 19.8558 24.7881 20.4196C24.7881 20.9835 24.3722 21.3439 23.364 21.3439C22.378 21.3439 20.9318 20.7707 20.3185 20.389V22.8453C21.1292 23.2947 22.3035 23.7216 23.364 23.7549C26.454 23.8533 28.0075 22.2229 28.0075 20.1723C27.9853 18.5499 27.1301 17.4965 25.0947 16.7699Z" fill="#5C1F9E"/>
</svg>
