<svg width="35" height="35" viewBox="0 0 35 35" fill="none" xmlns="http://www.w3.org/2000/svg">
<g clip-path="url(#clip0_492_189)">
<path d="M7 28H3.5C2.57174 28 1.6815 27.6313 1.02513 26.9749C0.368749 26.3185 0 25.4283 0 24.5L0 12.8333C0 11.9051 0.368749 11.0148 1.02513 10.3585C1.6815 9.70208 2.57174 9.33333 3.5 9.33333H18.6667V7H16.3333V4.66667H14V7H9.33333V3.5C9.33333 2.57174 9.70208 1.6815 10.3585 1.02513C11.0148 0.368749 11.9051 0 12.8333 0L22.1667 0C23.0949 0 23.9852 0.368749 24.6415 1.02513C25.2979 1.6815 25.6667 2.57174 25.6667 3.5V15.1667C25.6667 15.4761 25.5438 15.7728 25.325 15.9916C25.1062 16.2104 24.8094 16.3333 24.5 16.3333H10.5C9.57174 16.3333 8.6815 16.7021 8.02513 17.3585C7.36875 18.0148 7 18.9051 7 19.8333V28Z" fill="#5C1F9E"/>
<path d="M28 7V15.1667C28 16.0949 27.6313 16.9852 26.9749 17.6415C26.3185 18.2979 25.4283 18.6667 24.5 18.6667H10.5C10.1906 18.6667 9.89388 18.7896 9.67508 19.0084C9.45629 19.2272 9.33337 19.5239 9.33337 19.8333V31.5C9.33337 32.4283 9.70212 33.3185 10.3585 33.9749C11.0149 34.6313 11.9051 35 12.8334 35H22.1667C23.095 35 23.9852 34.6313 24.6416 33.9749C25.298 33.3185 25.6667 32.4283 25.6667 31.5V28H21V30.3333H18.6667V28H16.3334V25.6667H31.5C32.4283 25.6667 33.3185 25.2979 33.9749 24.6415C34.6313 23.9852 35 23.0949 35 22.1667V10.5C35 9.57174 34.6313 8.6815 33.9749 8.02513C33.3185 7.36875 32.4283 7 31.5 7H28Z" fill="#5C1F9E"/>
</g>
<defs>
<clipPath id="clip0_492_189">
<rect width="35" height="35" fill="white"/>
</clipPath>
</defs>
</svg>
