<svg width="16" height="18" viewBox="0 0 16 18" fill="none" xmlns="http://www.w3.org/2000/svg">
<path d="M4.99154 5.43792C4.76488 5.43792 4.56821 5.52125 4.40154 5.68792C4.23488 5.85459 4.15154 6.05125 4.15154 6.27792C4.15154 6.50459 4.23488 6.70125 4.40154 6.86792C4.56821 7.03459 4.76488 7.11792 4.99154 7.11792H5.83154C6.05821 7.11792 6.25488 7.03459 6.42154 6.86792C6.58821 6.70125 6.67154 6.50459 6.67154 6.27792C6.67154 6.05125 6.58821 5.85459 6.42154 5.68792C6.25488 5.52125 6.05821 5.43792 5.83154 5.43792H4.99154ZM9.17154 15.4379H3.33154C3.10488 15.4379 2.90821 15.3579 2.74154 15.1979C2.57488 15.0379 2.49154 14.8446 2.49154 14.6179V2.93792C2.49154 2.71125 2.57488 2.51792 2.74154 2.35792C2.90821 2.19792 3.10488 2.11792 3.33154 2.11792H7.49154V4.61792C7.49154 5.07125 7.60488 5.48792 7.83154 5.86792C8.05821 6.24792 8.36154 6.55125 8.74154 6.77792C9.12154 7.00459 9.53821 7.11792 9.99154 7.11792H12.4915V8.77792C12.4915 9.00459 12.5749 9.20125 12.7415 9.36792C12.9082 9.53459 13.1049 9.61792 13.3315 9.61792C13.5582 9.61792 13.7549 9.53459 13.9215 9.36792C14.0882 9.20125 14.1715 9.00459 14.1715 8.77792V6.21792C14.1582 6.13792 14.1382 6.06459 14.1115 5.99792V5.91792C14.0715 5.83792 14.0182 5.76459 13.9515 5.69792L8.95154 0.69792C8.88488 0.631254 8.81154 0.577921 8.73154 0.53792C8.70488 0.524588 8.67154 0.524588 8.63154 0.53792C8.55154 0.497921 8.47154 0.464586 8.39154 0.43792H3.33154C2.87821 0.43792 2.46154 0.551254 2.08154 0.77792C1.70154 1.00459 1.39821 1.30792 1.17154 1.68792C0.944876 2.06792 0.831543 2.48459 0.831543 2.93792V14.6179C0.831543 15.0713 0.944876 15.4879 1.17154 15.8679C1.39821 16.2479 1.70154 16.5513 2.08154 16.7779C2.46154 17.0046 2.87821 17.1179 3.33154 17.1179H9.17154C9.39821 17.1179 9.59488 17.0346 9.76154 16.8679C9.92821 16.7013 10.0115 16.5046 10.0115 16.2779C10.0115 16.0513 9.92821 15.8546 9.76154 15.6879C9.59488 15.5213 9.39821 15.4379 9.17154 15.4379ZM9.17154 3.27792L11.3315 5.43792H9.99154C9.76488 5.43792 9.57154 5.35792 9.41154 5.19792C9.25154 5.03792 9.17154 4.84459 9.17154 4.61792V3.27792ZM9.99154 8.77792H4.99154C4.79154 8.80459 4.62154 8.89792 4.48154 9.05792C4.34154 9.21792 4.27154 9.40125 4.27154 9.60792C4.27154 9.81459 4.34154 9.99792 4.48154 10.1579C4.62154 10.3179 4.79154 10.4113 4.99154 10.4379H9.99154C10.1915 10.4113 10.3615 10.3179 10.5015 10.1579C10.6415 9.99792 10.7115 9.81459 10.7115 9.60792C10.7115 9.40125 10.6415 9.21792 10.5015 9.05792C10.3615 8.89792 10.1915 8.80459 9.99154 8.77792ZM15.5915 14.0179C15.4315 13.8579 15.2349 13.7779 15.0015 13.7779C14.7682 13.7779 14.5715 13.8579 14.4115 14.0179L14.1715 14.2779V12.1179C14.1715 11.8913 14.0882 11.6946 13.9215 11.5279C13.7549 11.3613 13.5582 11.2779 13.3315 11.2779C13.1049 11.2779 12.9082 11.3613 12.7415 11.5279C12.5749 11.6946 12.4915 11.8913 12.4915 12.1179V14.2779L12.2515 14.0179C12.0782 13.8846 11.8882 13.8246 11.6815 13.8379C11.4749 13.8513 11.2949 13.9346 11.1415 14.0879C10.9882 14.2413 10.9049 14.4213 10.8915 14.6279C10.8782 14.8346 10.9382 15.0246 11.0715 15.1979L12.7315 16.8779C12.8115 16.9446 12.9049 16.9979 13.0115 17.0379C13.2249 17.1313 13.4382 17.1313 13.6515 17.0379C13.7582 16.9979 13.8515 16.9446 13.9315 16.8779L15.5915 15.1979C15.7515 15.0379 15.8315 14.8413 15.8315 14.6079C15.8315 14.3746 15.7515 14.1779 15.5915 14.0179ZM8.33154 13.7779C8.53154 13.7513 8.70154 13.6579 8.84154 13.4979C8.98154 13.3379 9.05154 13.1546 9.05154 12.9479C9.05154 12.7413 8.98154 12.5579 8.84154 12.3979C8.70154 12.2379 8.53154 12.1446 8.33154 12.1179H4.99154C4.79154 12.1446 4.62154 12.2379 4.48154 12.3979C4.34154 12.5579 4.27154 12.7413 4.27154 12.9479C4.27154 13.1546 4.34154 13.3379 4.48154 13.4979C4.62154 13.6579 4.79154 13.7513 4.99154 13.7779H8.33154Z" fill="white"/>
</svg>
