<svg width="27" height="42" viewBox="0 0 27 42" fill="none" xmlns="http://www.w3.org/2000/svg">
<path d="M1.26168 22.8957L21.028 40.2087C21.7009 40.7981 22.528 41.0928 23.5093 41.0928C24.4907 41.0928 25.3178 40.7981 25.9907 40.2087C26.6636 39.6193 27 38.8949 27 38.0354C27 37.1759 26.6636 36.4514 25.9907 35.862L8.66355 20.5382L25.9907 5.36171C26.6636 4.77233 27 4.04788 27 3.18837C27 2.32886 26.6636 1.60442 25.9907 1.01504C25.3178 0.425663 24.4907 0.118695 23.5093 0.0941377C22.528 0.0695803 21.7009 0.376548 21.028 1.01504L1.17757 18.328C0.392523 18.9174 0 19.6787 0 20.6119C0 21.5451 0.392523 22.3063 1.17757 22.8957H1.26168Z" fill="white"/>
</svg>
